# xmcd
#
# Track frame offsets:
#	150
#	17944
#	33524
#	53646
#	73128
#	89834
#	107272
#	122511
#	140549
#	154694
#	168898
#	182091
#	193756
#	208768
#	226883
#
# Disc length: 3232 seconds
#
# Revision: 1
# Processed by: cddbd v1.5.2PL0 Copyright (c) Steve Scherf et al.
# Submitted via: audiograbber 1.83.01
#
DISCID=cd0c9e0f
DTITLE=Various Artist - Cb60120
DYEAR=1900
DGENRE=Country
TTITLE0=Warren Brothers - Guilty
TTITLE1=Clint Daniels - When  I Grow Up
TTITLE2=Faith Hill - Let Me Let Go
TTITLE3=Monty Holmes - Alone
TTITLE4=Dwight Yoakam - These Arms
TTITLE5=Shania Twain - When I Grow Up
TTITLE6=Brooks And Dunn - Husbands and Wives
TTITLE7=Lila Mccann - To Get Me To You
TTITLE8=Michael Peterson - By The Book
TTITLE9=Sammy Kershaw - One Day Left To Live
TTITLE10=Danni Leigh - If The Jukebox Took Teardrops
TTITLE11=Diamond Rio - Unbelievable
TTITLE12=Randy Travis - Spirit Of A Boy Wisdom Of A Man
TTITLE13=Heather Myles - True Love
TTITLE14=David Kersh - Something To Think About
EXTD=
EXTT0=
EXTT1=
EXTT2=
EXTT3=
EXTT4=
EXTT5=
EXTT6=
EXTT7=
EXTT8=
EXTT9=
EXTT10=
EXTT11=
EXTT12=
EXTT13=
EXTT14=
PLAYORDER=
